<svg width="51" height="45" viewBox="0 0 51 45" fill="none" xmlns="http://www.w3.org/2000/svg">
<g clip-path="url(#clip0_126_734)">
<path fill-rule="evenodd" clip-rule="evenodd" d="M5.55481 10.1738C5.79608 9.65977 6.20468 9.22047 6.72894 8.91142C7.2532 8.60236 7.86956 8.43744 8.50006 8.4375H29.7501C33.9769 8.4375 38.0307 9.91908 41.0196 12.5563C44.0084 15.1935 45.6876 18.7704 45.6876 22.5C45.6876 26.2296 44.0084 29.8065 41.0196 32.4437C38.0307 35.0809 33.9769 36.5625 29.7501 36.5625H10.6251C9.77968 36.5625 8.96893 36.2662 8.37116 35.7387C7.77338 35.2113 7.43756 34.4959 7.43756 33.75C7.43756 33.0041 7.77338 32.2887 8.37116 31.7613C8.96893 31.2338 9.77968 30.9375 10.6251 30.9375H29.7501C32.2862 30.9375 34.7185 30.0486 36.5118 28.4662C38.3051 26.8839 39.3126 24.7378 39.3126 22.5C39.3126 20.2622 38.3051 18.1161 36.5118 16.5338C34.7185 14.9514 32.2862 14.0625 29.7501 14.0625H16.1947L18.1922 15.825C18.7725 16.3557 19.0934 17.0663 19.0858 17.8037C19.0781 18.5411 18.7425 19.2464 18.1513 19.7676C17.56 20.2888 16.7604 20.5843 15.9246 20.5903C15.0888 20.5964 14.2838 20.3126 13.6829 19.8L6.24543 13.2375C5.8 12.8442 5.49666 12.3433 5.37374 11.798C5.25082 11.2527 5.31383 10.6875 5.55481 10.1738Z" fill="black"/>
</g>
<defs>
<clipPath id="clip0_126_734">
<rect width="51" height="45" fill="white"/>
</clipPath>
</defs>
</svg>
