<svg width="90" height="89" viewBox="0 0 90 89" fill="none" xmlns="http://www.w3.org/2000/svg">
<g id="Group 42">
<g id="&#208;&#146;&#208;&#190;&#208;&#185;&#209;&#130;&#208;&#184;">
<rect id="Rectangle 8" width="89.8549" height="89" rx="30" fill="#FFFFFF" fill-opacity="1"/>
</g>
<g id="ph:basket-light">
<path id="Vector" d="M43.6876 44.25V56.5C43.6876 56.8481 43.8259 57.1819 44.072 57.4281C44.3182 57.6742 44.652 57.8125 45.0001 57.8125C45.3482 57.8125 45.6821 57.6742 45.9282 57.4281C46.1743 57.1819 46.3126 56.8481 46.3126 56.5V44.25C46.3126 43.9019 46.1743 43.5681 45.9282 43.3219C45.6821 43.0758 45.3482 42.9375 45.0001 42.9375C44.652 42.9375 44.3182 43.0758 44.072 43.3219C43.8259 43.5681 43.6876 43.9019 43.6876 44.25ZM20.9639 39.4047L24.0001 62.1547C24.0982 62.8901 24.4598 63.5648 25.0178 64.0536C25.5758 64.5425 26.2923 64.8121 27.0342 64.8125H62.9661C63.7079 64.8121 64.4244 64.5425 64.9824 64.0536C65.5405 63.5648 65.9021 62.8901 66.0001 62.1547L69.0342 39.4047C69.0918 38.9723 69.0564 38.5326 68.9304 38.115C68.8043 37.6974 68.5905 37.3115 68.3032 36.9832C68.0159 36.655 67.6619 36.3918 67.2647 36.2115C66.8675 36.0312 66.4363 35.9377 66.0001 35.9375H57.8451L45.9889 22.386C45.8657 22.2463 45.7142 22.1344 45.5445 22.0578C45.3748 21.9812 45.1907 21.9416 45.0045 21.9416C44.8183 21.9416 44.6342 21.9812 44.4645 22.0578C44.2948 22.1344 44.1433 22.2463 44.0201 22.386L32.1639 35.9485H24.0001C23.5639 35.9487 23.1328 36.0421 22.7356 36.2224C22.3384 36.4028 21.9843 36.6659 21.697 36.9942C21.4098 37.3225 21.1959 37.7083 21.0699 38.1259C20.9438 38.5435 20.9084 38.9832 20.9661 39.4156L20.9639 39.4047ZM54.3582 35.9375H35.642L45.0001 25.2428L54.3582 35.9375ZM23.672 38.7113C23.713 38.6646 23.7635 38.6272 23.82 38.6015C23.8766 38.5759 23.938 38.5626 24.0001 38.5625H66.0001C66.0626 38.5623 66.1244 38.5754 66.1814 38.6011C66.2384 38.6268 66.2892 38.6643 66.3304 38.7113C66.3719 38.7579 66.4029 38.8129 66.4214 38.8725C66.4399 38.9321 66.4454 38.995 66.4376 39.0569L63.4057 61.8069C63.3914 61.9124 63.339 62.0091 63.2585 62.0787C63.1779 62.1484 63.0747 62.1863 62.9682 62.1853H27.0342C26.9277 62.1863 26.8245 62.1484 26.744 62.0787C26.6634 62.0091 26.6111 61.9124 26.5967 61.8069L23.5626 39.0569C23.554 38.9948 23.5594 38.9315 23.5783 38.8717C23.5972 38.812 23.6292 38.7571 23.672 38.7113ZM33.3189 42.9375C33.4904 42.9203 33.6636 42.937 33.8286 42.9867C33.9937 43.0364 34.1473 43.1181 34.2808 43.2272C34.4142 43.3363 34.5249 43.4706 34.6064 43.6224C34.688 43.7743 34.7388 43.9407 34.7561 44.1122L35.9811 56.3622C36.0001 56.5347 35.9848 56.7093 35.9359 56.8759C35.8871 57.0424 35.8057 57.1977 35.6964 57.3325C35.5872 57.4674 35.4523 57.5793 35.2995 57.6617C35.1467 57.7441 34.9791 57.7953 34.8064 57.8125H34.6729C34.3464 57.8142 34.031 57.694 33.7883 57.4756C33.5456 57.2572 33.3931 56.9561 33.3604 56.6313L32.1354 44.3813C32.1173 44.2086 32.1336 44.034 32.1835 43.8677C32.2333 43.7014 32.3156 43.5466 32.4257 43.4123C32.5358 43.278 32.6714 43.1669 32.8247 43.0854C32.978 43.0039 33.146 42.9536 33.3189 42.9375ZM55.2442 44.1188C55.279 43.7724 55.45 43.4541 55.7195 43.2338C55.989 43.0135 56.335 42.9093 56.6814 42.9441C57.0277 42.9789 57.3461 43.1499 57.5664 43.4194C57.7867 43.6889 57.8909 44.0349 57.8561 44.3813L56.6311 56.6313C56.5984 56.9561 56.4458 57.2572 56.2031 57.4756C55.9605 57.694 55.6451 57.8142 55.3186 57.8125H55.1851C55.0136 57.7953 54.8472 57.7444 54.6953 57.6629C54.5435 57.5813 54.4092 57.4707 54.3001 57.3372C54.191 57.2038 54.1093 57.0501 54.0596 56.8851C54.0099 56.72 53.9932 56.5468 54.0104 56.3753L55.2442 44.1188Z" fill="black"/>
</g>
</g>
</svg>
