<svg width="45" height="41" viewBox="0 0 45 41" fill="none" xmlns="http://www.w3.org/2000/svg">
<path d="M20.2434 36.938L20.2412 36.936C14.4178 31.6921 9.70555 27.44 6.43157 23.4624C3.17375 19.5044 1.5 16.004 1.5 12.2888C1.5 6.22481 6.26173 1.5 12.375 1.5C15.8404 1.5 19.1884 3.10972 21.3651 5.62826L22.5 6.94133L23.6349 5.62826C25.8116 3.10972 29.1596 1.5 32.625 1.5C38.7383 1.5 43.5 6.22481 43.5 12.2888C43.5 16.004 41.8262 19.5044 38.5684 23.4624C35.2944 27.44 30.5822 31.6921 24.7588 36.936L24.7566 36.938L22.5 38.9779L20.2434 36.938Z" fill="white" stroke="black" stroke-width="3"/>
</svg>
