<svg width="90" height="89" viewBox="0 0 90 89" fill="none" xmlns="http://www.w3.org/2000/svg">
<rect width="89.8549" height="89" rx="30" fill="#FFFFFF" fill-opacity="1"/>
<path d="M55.9375 23C51.4203 23 47.4653 24.9425 45 28.2259C42.5347 24.9425 38.5797 23 34.0625 23C30.4667 23.0041 27.0194 24.4343 24.4768 26.9768C21.9343 29.5194 20.5041 32.9667 20.5 36.5625C20.5 51.875 43.2041 64.2694 44.1709 64.7812C44.4258 64.9183 44.7106 64.9901 45 64.9901C45.2894 64.9901 45.5742 64.9183 45.8291 64.7812C46.7959 64.2694 69.5 51.875 69.5 36.5625C69.4959 32.9667 68.0657 29.5194 65.5232 26.9768C62.9806 24.4343 59.5333 23.0041 55.9375 23ZM45 61.2375C41.0056 58.91 24 48.3072 24 36.5625C24.0035 33.8948 25.0647 31.3374 26.9511 29.4511C28.8374 27.5647 31.3948 26.5035 34.0625 26.5C38.3172 26.5 41.8894 28.7663 43.3813 32.4062C43.5131 32.7272 43.7374 33.0017 44.0256 33.195C44.3138 33.3882 44.653 33.4913 45 33.4913C45.347 33.4913 45.6862 33.3882 45.9744 33.195C46.2626 33.0017 46.4869 32.7272 46.6187 32.4062C48.1106 28.7597 51.6828 26.5 55.9375 26.5C58.6052 26.5035 61.1626 27.5647 63.0489 29.4511C64.9353 31.3374 65.9965 33.8948 66 36.5625C66 48.2897 48.99 58.9078 45 61.2375Z" fill="black"/>
</svg>
